<?xml version="1.0" encoding="UTF-8" standalone="no"?>
<!-- Created with Inkscape (http://www.inkscape.org/) -->

<svg
   xmlns:ns1="http://www.iki.fi/pav/software/textext/"
   xmlns:dc="http://purl.org/dc/elements/1.1/"
   xmlns:cc="http://creativecommons.org/ns#"
   xmlns:rdf="http://www.w3.org/1999/02/22-rdf-syntax-ns#"
   xmlns:svg="http://www.w3.org/2000/svg"
   xmlns="http://www.w3.org/2000/svg"
   xmlns:sodipodi="http://sodipodi.sourceforge.net/DTD/sodipodi-0.dtd"
   xmlns:inkscape="http://www.inkscape.org/namespaces/inkscape"
   version="1.1"
   id="svg2"
   xml:space="preserve"
   width="440.08884"
   height="266.95959"
   viewBox="0 0 440.08883 266.9596"
   sodipodi:docname="SHE_electrons.svg"
   inkscape:version="0.92.4 (5da689c313, 2019-01-14)"><metadata
     id="metadata8"><rdf:RDF><cc:Work
         rdf:about=""><dc:format>image/svg+xml</dc:format><dc:type
           rdf:resource="http://purl.org/dc/dcmitype/StillImage" /><dc:title /></cc:Work></rdf:RDF></metadata><defs
     id="defs6"><marker
       inkscape:stockid="Arrow1Mend"
       orient="auto"
       refY="0"
       refX="0"
       id="marker1434"
       style="overflow:visible"
       inkscape:isstock="true"><path
         id="path1432"
         d="M 0,0 5,-5 -12.5,0 5,5 Z"
         style="fill:#0b3b06;fill-opacity:1;fill-rule:evenodd;stroke:#0b3b06;stroke-width:1.00000003pt;stroke-opacity:1"
         transform="matrix(-0.4,0,0,-0.4,-4,0)"
         inkscape:connector-curvature="0" /></marker><marker
       inkscape:stockid="Arrow1Mend"
       orient="auto"
       refY="0"
       refX="0"
       id="marker1434-3"
       style="overflow:visible"
       inkscape:isstock="true"><path
         inkscape:connector-curvature="0"
         id="path1432-5"
         d="M 0,0 5,-5 -12.5,0 5,5 Z"
         style="fill:#e51519;fill-opacity:1;fill-rule:evenodd;stroke:#e51519;stroke-width:1.00000003pt;stroke-opacity:1"
         transform="matrix(-0.4,0,0,-0.4,-4,0)" /></marker><marker
       inkscape:stockid="Arrow1Mend"
       orient="auto"
       refY="0"
       refX="0"
       id="marker1434-0"
       style="overflow:visible"
       inkscape:isstock="true"><path
         id="path1432-0"
         d="M 0,0 5,-5 -12.5,0 5,5 Z"
         style="fill:#0c0077;fill-opacity:1;fill-rule:evenodd;stroke:#0c0077;stroke-width:1.00000003pt;stroke-opacity:1"
         transform="matrix(-0.4,0,0,-0.4,-4,0)"
         inkscape:connector-curvature="0" /></marker></defs><sodipodi:namedview
     pagecolor="#ffffff"
     bordercolor="#666666"
     borderopacity="1"
     objecttolerance="10"
     gridtolerance="10"
     guidetolerance="10"
     inkscape:pageopacity="0"
     inkscape:pageshadow="2"
     inkscape:window-width="1366"
     inkscape:window-height="705"
     id="namedview4"
     showgrid="false"
     inkscape:zoom="0.95152353"
     inkscape:cx="100.37562"
     inkscape:cy="160.18683"
     inkscape:window-x="-8"
     inkscape:window-y="-8"
     inkscape:window-maximized="1"
     inkscape:current-layer="g12" /><g
     id="g10"
     inkscape:groupmode="layer"
     inkscape:label="SHE_electrons1-eps-converted-to"
     transform="matrix(1.3333333,0,0,-1.3333333,-21.523398,223.93733)"><g
       id="g12"
       transform="scale(0.1)"><g
         id="g20"
         transform="matrix(0.83488598,0,0,0.82928108,303.82264,2686.543)"><path
           d="m 3300.84,-1396.77 v -249.59"
           style="fill:none;stroke:#000000;stroke-width:26.39850044;stroke-linecap:butt;stroke-linejoin:round;stroke-miterlimit:10;stroke-dasharray:none;stroke-opacity:1"
           id="path22"
           inkscape:connector-curvature="0" /></g><g
         id="g24"
         transform="matrix(0.83488598,0,0,0.82928108,303.82264,2686.543)"><path
           d="m 3469.3,-1395.2 v -249.56"
           style="fill:none;stroke:#000000;stroke-width:26.39850044;stroke-linecap:butt;stroke-linejoin:round;stroke-miterlimit:10;stroke-dasharray:none;stroke-opacity:1"
           id="path26"
           inkscape:connector-curvature="0" /></g><g
         id="g28"
         transform="matrix(0.83488598,0,0,0.82928108,303.82264,2686.543)"><path
           d="m 2967.04,-1396.77 v -249.59"
           style="fill:none;stroke:#000000;stroke-width:26.39850044;stroke-linecap:butt;stroke-linejoin:round;stroke-miterlimit:10;stroke-dasharray:none;stroke-opacity:1"
           id="path30"
           inkscape:connector-curvature="0" /></g><g
         id="g32"
         transform="matrix(0.83488598,0,0,0.82928108,303.82264,2686.543)"><path
           d="m 3135.46,-1395.2 v -249.56"
           style="fill:none;stroke:#000000;stroke-width:26.39850044;stroke-linecap:butt;stroke-linejoin:round;stroke-miterlimit:10;stroke-dasharray:none;stroke-opacity:1"
           id="path34"
           inkscape:connector-curvature="0" /></g><g
         id="g36"
         transform="matrix(0.83488598,0,0,0.82928108,303.82264,2686.543)"><path
           d="m 2629.98,-1398.58 v -249.59"
           style="fill:none;stroke:#000000;stroke-width:26.39850044;stroke-linecap:butt;stroke-linejoin:round;stroke-miterlimit:10;stroke-dasharray:none;stroke-opacity:1"
           id="path38"
           inkscape:connector-curvature="0" /></g><g
         id="g40"
         transform="matrix(0.83488598,0,0,0.82928108,303.82264,2686.543)"><path
           d="M 2798.43,-1397.01 V -1646.6"
           style="fill:none;stroke:#000000;stroke-width:26.39850044;stroke-linecap:butt;stroke-linejoin:round;stroke-miterlimit:10;stroke-dasharray:none;stroke-opacity:1"
           id="path42"
           inkscape:connector-curvature="0" /></g><g
         id="g44"
         transform="matrix(0.83488598,0,0,0.82928108,303.82264,2686.543)"><path
           d="m 2296.18,-1398.58 v -249.59"
           style="fill:none;stroke:#000000;stroke-width:26.39850044;stroke-linecap:butt;stroke-linejoin:round;stroke-miterlimit:10;stroke-dasharray:none;stroke-opacity:1"
           id="path46"
           inkscape:connector-curvature="0" /></g><g
         id="g48"
         transform="matrix(0.83488598,0,0,0.82928108,303.82264,2686.543)"><path
           d="M 2464.59,-1397.01 V -1646.6"
           style="fill:none;stroke:#000000;stroke-width:26.39850044;stroke-linecap:butt;stroke-linejoin:round;stroke-miterlimit:10;stroke-dasharray:none;stroke-opacity:1"
           id="path50"
           inkscape:connector-curvature="0" /></g><g
         id="g52"
         transform="matrix(0.83488598,0,0,0.82928108,303.82264,2686.543)"><path
           d="m 1964.68,-1399.63 v -249.59"
           style="fill:none;stroke:#000000;stroke-width:26.39850044;stroke-linecap:butt;stroke-linejoin:round;stroke-miterlimit:10;stroke-dasharray:none;stroke-opacity:1"
           id="path54"
           inkscape:connector-curvature="0" /></g><g
         id="g56"
         transform="matrix(0.83488598,0,0,0.82928108,303.82264,2686.543)"><path
           d="m 2133.05,-1398.07 v -249.55"
           style="fill:none;stroke:#000000;stroke-width:26.39850044;stroke-linecap:butt;stroke-linejoin:round;stroke-miterlimit:10;stroke-dasharray:none;stroke-opacity:1"
           id="path58"
           inkscape:connector-curvature="0" /></g><g
         id="g60"
         transform="matrix(0.83488598,0,0,0.82928108,303.82264,2686.543)"><path
           d="m 1630.84,-1399.63 v -249.59"
           style="fill:none;stroke:#000000;stroke-width:26.39850044;stroke-linecap:butt;stroke-linejoin:round;stroke-miterlimit:10;stroke-dasharray:none;stroke-opacity:1"
           id="path62"
           inkscape:connector-curvature="0" /></g><g
         id="g64"
         transform="matrix(0.83488598,0,0,0.82928108,303.82264,2686.543)"><path
           d="m 1799.25,-1398.07 v -249.55"
           style="fill:none;stroke:#000000;stroke-width:26.39850044;stroke-linecap:butt;stroke-linejoin:round;stroke-miterlimit:10;stroke-dasharray:none;stroke-opacity:1"
           id="path66"
           inkscape:connector-curvature="0" /></g><path
         d="m 3057.5227,1229.0019 33.2583,95.9473 h -66.5416 z"
         style="fill:#000000;fill-opacity:1;fill-rule:evenodd;stroke:none;stroke-width:0.83208191"
         id="path78"
         inkscape:connector-curvature="0" /><path
         d="m 3198.1362,1230.3332 33.25,96.1137 h -66.3086 z"
         style="fill:#000000;fill-opacity:1;fill-rule:evenodd;stroke:none;stroke-width:0.83208191"
         id="path80"
         inkscape:connector-curvature="0" /><path
         d="m 2778.8086,1229.0019 33.2499,95.9473 h -66.4999 z"
         style="fill:#000000;fill-opacity:1;fill-rule:evenodd;stroke:none;stroke-width:0.83208191"
         id="path82"
         inkscape:connector-curvature="0" /><path
         d="m 2919.4554,1230.3332 33.25,96.1137 h -66.3087 z"
         style="fill:#000000;fill-opacity:1;fill-rule:evenodd;stroke:none;stroke-width:0.83208191"
         id="path84"
         inkscape:connector-curvature="0" /><path
         d="m 2497.4317,1227.504 33.25,95.9224 h -66.5332 z"
         style="fill:#000000;fill-opacity:1;fill-rule:evenodd;stroke:none;stroke-width:0.83208191"
         id="path86"
         inkscape:connector-curvature="0" /><path
         d="m 2638.0703,1228.8104 33.2166,96.1388 h -66.3002 z"
         style="fill:#000000;fill-opacity:1;fill-rule:evenodd;stroke:none;stroke-width:0.83208191"
         id="path88"
         inkscape:connector-curvature="0" /><path
         d="m 2218.7176,1227.504 33.25,95.9224 h -66.5 z"
         style="fill:#000000;fill-opacity:1;fill-rule:evenodd;stroke:none;stroke-width:0.83208191"
         id="path90"
         inkscape:connector-curvature="0" /><path
         d="m 2359.3561,1228.8104 33.2167,96.1388 h -66.267 z"
         style="fill:#000000;fill-opacity:1;fill-rule:evenodd;stroke:none;stroke-width:0.83208191"
         id="path92"
         inkscape:connector-curvature="0" /><path
         d="m 1941.9505,1226.6304 33.2501,95.9474 h -66.5001 z"
         style="fill:#000000;fill-opacity:1;fill-rule:evenodd;stroke:none;stroke-width:0.83208191"
         id="path94"
         inkscape:connector-curvature="0" /><path
         d="m 2082.589,1227.9285 33.2583,96.147 h -66.3086 z"
         style="fill:#000000;fill-opacity:1;fill-rule:evenodd;stroke:none;stroke-width:0.83208191"
         id="path96"
         inkscape:connector-curvature="0" /><path
         d="m 1663.2363,1226.6304 33.2834,95.9474 h -66.5333 z"
         style="fill:#000000;fill-opacity:1;fill-rule:evenodd;stroke:none;stroke-width:0.83208191"
         id="path98"
         inkscape:connector-curvature="0" /><path
         d="m 1803.8749,1227.9285 33.25,96.147 h -66.3004 z"
         style="fill:#000000;fill-opacity:1;fill-rule:evenodd;stroke:none;stroke-width:0.83208191"
         id="path100"
         inkscape:connector-curvature="0" /><path
         d="m 3059.7693,1488.5698 c 37.7349,0 66.6664,-27.9497 66.6664,-64.711 0,-36.595 -28.9315,-64.5197 -66.6664,-64.5197 -37.8014,0 -66.4999,27.9247 -66.4999,64.5197 0,36.7613 28.6985,64.711 66.4999,64.711 z m 66.8578,-129.4553 v 0"
         style="fill:#656565;fill-opacity:1;fill-rule:evenodd;stroke:none;stroke-width:0.83208191"
         id="path102"
         inkscape:connector-curvature="0" /><path
         d="m 3200.7323,1489.9094 c 37.7682,0 66.6997,-27.9247 66.6997,-64.5196 0,-36.6033 -28.9315,-64.7526 -66.6997,-64.7526 -37.5685,0 -66.5,28.1493 -66.5,64.7526 0,36.5949 28.9315,64.5196 66.5,64.5196 z m 66.8911,-129.4636 v 0"
         style="fill:#656565;fill-opacity:1;fill-rule:evenodd;stroke:none;stroke-width:0.83208191"
         id="path104"
         inkscape:connector-curvature="0" /><path
         d="m 2780.3395,1488.5698 c 37.7683,0 66.6665,-27.9497 66.6665,-64.711 0,-36.595 -28.8982,-64.5197 -66.6665,-64.5197 -37.7681,0 -66.4999,27.9247 -66.4999,64.5197 0,36.7613 28.7318,64.711 66.4999,64.711 z m 66.8912,-129.4553 v 0"
         style="fill:#656565;fill-opacity:1;fill-rule:evenodd;stroke:none;stroke-width:0.83208191"
         id="path106"
         inkscape:connector-curvature="0" /><path
         d="m 2921.3359,1489.9094 c 37.7348,0 66.6663,-27.9247 66.6663,-64.5196 0,-36.6033 -28.9315,-64.7526 -66.6663,-64.7526 -37.5686,0 -66.5333,28.1493 -66.5333,64.7526 0,36.5949 28.9647,64.5196 66.5333,64.5196 z m 66.891,-129.4636 v 0"
         style="fill:#656565;fill-opacity:1;fill-rule:evenodd;stroke:none;stroke-width:0.83208191"
         id="path108"
         inkscape:connector-curvature="0" /><path
         d="m 2498.2139,1487.0471 c 37.7682,0 66.6914,-27.9247 66.6914,-64.7444 0,-36.57 -28.9232,-64.4613 -66.6914,-64.4613 -37.7682,0 -66.475,27.8913 -66.475,64.4613 0,36.8197 28.7068,64.7444 66.475,64.7444 z m 66.891,-129.4637 v 0"
         style="fill:#656565;fill-opacity:1;fill-rule:evenodd;stroke:none;stroke-width:0.83208191"
         id="path110"
         inkscape:connector-curvature="0" /><path
         d="m 2639.1769,1488.3451 c 37.7682,0 66.733,-27.8914 66.733,-64.4531 0,-36.6282 -28.9648,-64.7442 -66.733,-64.7442 -37.5435,0 -66.4667,28.116 -66.4667,64.7442 0,36.5617 28.9232,64.4531 66.4667,64.4531 z m 66.891,-129.3971 v 0"
         style="fill:#656565;fill-opacity:1;fill-rule:evenodd;stroke:none;stroke-width:0.83208191"
         id="path112"
         inkscape:connector-curvature="0" /><path
         d="m 2218.8175,1487.0471 c 37.7348,0 66.658,-27.9247 66.658,-64.7444 0,-36.57 -28.9232,-64.4613 -66.658,-64.4613 -37.7765,0 -66.5084,27.8913 -66.5084,64.4613 0,36.8197 28.7319,64.7444 66.5084,64.7444 z m 66.891,-129.4637 v 0"
         style="fill:#656565;fill-opacity:1;fill-rule:evenodd;stroke:none;stroke-width:0.83208191"
         id="path114"
         inkscape:connector-curvature="0" /><path
         d="m 2359.8137,1488.3451 c 37.7016,0 66.6914,-27.8914 66.6914,-64.4531 0,-36.6282 -28.9898,-64.7442 -66.6914,-64.7442 -37.5768,0 -66.4999,28.116 -66.4999,64.7442 0,36.5617 28.9231,64.4531 66.4999,64.4531 z m 66.8578,-129.3971 v 0"
         style="fill:#656565;fill-opacity:1;fill-rule:evenodd;stroke:none;stroke-width:0.83208191"
         id="path116"
         inkscape:connector-curvature="0" /><path
         d="m 1941.3348,1486.1983 c 37.7682,0 66.6664,-27.9496 66.6664,-64.7775 0,-36.5617 -28.8982,-64.4864 -66.6664,-64.4864 -37.7682,0 -66.5,27.9247 -66.5,64.4864 0,36.8279 28.7318,64.7775 66.5,64.7775 z m 66.9243,-129.4885 v 0"
         style="fill:#656565;fill-opacity:1;fill-rule:evenodd;stroke:none;stroke-width:0.83208191"
         id="path118"
         inkscape:connector-curvature="0" /><path
         d="m 2082.3311,1487.4964 c 37.7016,0 66.6664,-27.9164 66.6664,-64.5113 0,-36.6366 -28.9648,-64.7194 -66.6664,-64.7194 -37.5685,0 -66.5333,28.0828 -66.5333,64.7194 0,36.5949 28.9648,64.5113 66.5333,64.5113 z m 66.891,-129.4553 v 0"
         style="fill:#656565;fill-opacity:1;fill-rule:evenodd;stroke:none;stroke-width:0.83208191"
         id="path120"
         inkscape:connector-curvature="0" /><path
         d="m 1802.9014,1487.4964 c 37.7681,0 66.6997,-27.9164 66.6997,-64.5113 0,-36.6366 -28.9316,-64.7194 -66.6997,-64.7194 -37.5436,0 -66.5001,28.0828 -66.5001,64.7194 0,36.5949 28.9565,64.5113 66.5001,64.5113 z m 66.9243,-129.4553 v 0"
         style="fill:#656565;fill-opacity:1;fill-rule:evenodd;stroke:none;stroke-width:0.83208191"
         id="path122"
         inkscape:connector-curvature="0" /><path
         d="m 1661.9384,1486.1983 c 37.7348,0 66.658,-27.9496 66.658,-64.7775 0,-36.5617 -28.9232,-64.4864 -66.658,-64.4864 -37.8015,0 -66.5,27.9247 -66.5,64.4864 0,36.8279 28.6985,64.7775 66.5,64.7775 z m 66.891,-129.4885 v 0"
         style="fill:#656565;fill-opacity:1;fill-rule:evenodd;stroke:none;stroke-width:0.83208191"
         id="path144"
         inkscape:connector-curvature="0" /><path
         d="m 3302.6041,1496.9571 0.2247,-149.5417"
         style="fill:none;stroke:#000000;stroke-width:6.6745863;stroke-linecap:butt;stroke-linejoin:miter;stroke-miterlimit:4;stroke-dasharray:none;stroke-opacity:1"
         id="path152"
         inkscape:connector-curvature="0" /><g
         id="g124"
         transform="matrix(0.83178981,0,0,0.8323731,303.82264,159.6174)"><path
           d="M 1109.69,298.915 20.2766,292.667 1538.54,1416.8 3605.21,1429.15 2070.92,305.444 Z"
           style="fill:none;stroke:#000000;stroke-width:7.36099005;stroke-linecap:butt;stroke-linejoin:round;stroke-miterlimit:10;stroke-dasharray:none;stroke-opacity:1"
           id="path126"
           inkscape:connector-curvature="0" /></g><g
         id="g128"
         transform="matrix(0.83178981,0,0,0.8323731,303.82264,159.6174)"><path
           d="M 1109.92,478.582 20.558,472.334 1538.82,1596.47 3605.48,1608.81 2072.29,479.562 Z"
           style="fill:none;stroke:#000000;stroke-width:7.36099005;stroke-linecap:butt;stroke-linejoin:round;stroke-miterlimit:10;stroke-dasharray:none;stroke-opacity:1"
           id="path130"
           inkscape:connector-curvature="0" /></g><path
         d="m 320.68852,562.95445 0.23406,-149.55007"
         style="fill:none;stroke:#000000;stroke-width:6.6745863;stroke-linecap:butt;stroke-linejoin:miter;stroke-miterlimit:4;stroke-dasharray:none;stroke-opacity:1"
         id="path146"
         inkscape:connector-curvature="0" /><path
         d="m 1583.5729,1338.9271 0.2246,149.55"
         style="fill:none;stroke:#000000;stroke-width:6.6745863;stroke-linecap:butt;stroke-linejoin:miter;stroke-miterlimit:4;stroke-dasharray:none;stroke-opacity:1"
         id="path148"
         inkscape:connector-curvature="0" /><path
         d="m 2027.3055,556.9385 0.2246,-149.55007"
         style="fill:none;stroke:#000000;stroke-width:6.6745863;stroke-linecap:butt;stroke-linejoin:miter;stroke-miterlimit:4;stroke-dasharray:none;stroke-opacity:1"
         id="path150"
         inkscape:connector-curvature="0" /><g
         id="g174"
         transform="matrix(0.83488598,0,0,-0.82928108,303.82264,806.56306)"><path
           d="M 1806.73,516.861 V 267.232"
           style="fill:none;stroke:#000000;stroke-width:26.39850044;stroke-linecap:butt;stroke-linejoin:round;stroke-miterlimit:10;stroke-dasharray:none;stroke-opacity:1"
           id="path176"
           inkscape:connector-curvature="0" /></g><g
         id="g178"
         transform="matrix(0.83488598,0,0,-0.82928108,303.82264,806.56306)"><path
           d="M 1975.19,518.425 V 268.839"
           style="fill:none;stroke:#000000;stroke-width:26.39850044;stroke-linecap:butt;stroke-linejoin:round;stroke-miterlimit:10;stroke-dasharray:none;stroke-opacity:1"
           id="path180"
           inkscape:connector-curvature="0" /></g><g
         id="g182"
         transform="matrix(0.83488598,0,0,-0.82928108,303.82264,806.56306)"><path
           d="M 1472.93,516.861 V 267.232"
           style="fill:none;stroke:#000000;stroke-width:26.39850044;stroke-linecap:butt;stroke-linejoin:round;stroke-miterlimit:10;stroke-dasharray:none;stroke-opacity:1"
           id="path184"
           inkscape:connector-curvature="0" /></g><g
         id="g186"
         transform="matrix(0.83488598,0,0,-0.82928108,303.82264,806.56306)"><path
           d="M 1641.35,518.425 V 268.839"
           style="fill:none;stroke:#000000;stroke-width:26.39850044;stroke-linecap:butt;stroke-linejoin:round;stroke-miterlimit:10;stroke-dasharray:none;stroke-opacity:1"
           id="path188"
           inkscape:connector-curvature="0" /></g><g
         id="g190"
         transform="matrix(0.83488598,0,0,-0.82928108,303.82264,806.56306)"><path
           d="M 1135.87,515.019 V 265.429"
           style="fill:none;stroke:#000000;stroke-width:26.39850044;stroke-linecap:butt;stroke-linejoin:round;stroke-miterlimit:10;stroke-dasharray:none;stroke-opacity:1"
           id="path192"
           inkscape:connector-curvature="0" /></g><g
         id="g194"
         transform="matrix(0.83488598,0,0,-0.82928108,303.82264,806.56306)"><path
           d="M 1304.32,516.583 V 267.032"
           style="fill:none;stroke:#000000;stroke-width:26.39850044;stroke-linecap:butt;stroke-linejoin:round;stroke-miterlimit:10;stroke-dasharray:none;stroke-opacity:1"
           id="path196"
           inkscape:connector-curvature="0" /></g><g
         id="g198"
         transform="matrix(0.83488598,0,0,-0.82928108,303.82264,806.56306)"><path
           d="M 802.07,515.019 V 265.429"
           style="fill:none;stroke:#000000;stroke-width:26.39850044;stroke-linecap:butt;stroke-linejoin:round;stroke-miterlimit:10;stroke-dasharray:none;stroke-opacity:1"
           id="path200"
           inkscape:connector-curvature="0" /></g><g
         id="g202"
         transform="matrix(0.83488598,0,0,-0.82928108,303.82264,806.56306)"><path
           d="M 970.483,516.583 V 267.032"
           style="fill:none;stroke:#000000;stroke-width:26.39850044;stroke-linecap:butt;stroke-linejoin:round;stroke-miterlimit:10;stroke-dasharray:none;stroke-opacity:1"
           id="path204"
           inkscape:connector-curvature="0" /></g><g
         id="g206"
         transform="matrix(0.83488598,0,0,-0.82928108,303.82264,806.56306)"><path
           d="M 470.564,513.961 V 264.402"
           style="fill:none;stroke:#000000;stroke-width:26.39850044;stroke-linecap:butt;stroke-linejoin:round;stroke-miterlimit:10;stroke-dasharray:none;stroke-opacity:1"
           id="path208"
           inkscape:connector-curvature="0" /></g><g
         id="g210"
         transform="matrix(0.83488598,0,0,-0.82928108,303.82264,806.56306)"><path
           d="M 638.939,515.568 V 265.977"
           style="fill:none;stroke:#000000;stroke-width:26.39850044;stroke-linecap:butt;stroke-linejoin:round;stroke-miterlimit:10;stroke-dasharray:none;stroke-opacity:1"
           id="path212"
           inkscape:connector-curvature="0" /></g><g
         id="g214"
         transform="matrix(0.83488598,0,0,-0.82928108,303.82264,806.56306)"><path
           d="M 136.731,513.961 V 264.402"
           style="fill:none;stroke:#000000;stroke-width:26.39850044;stroke-linecap:butt;stroke-linejoin:round;stroke-miterlimit:10;stroke-dasharray:none;stroke-opacity:1"
           id="path216"
           inkscape:connector-curvature="0" /></g><g
         id="g218"
         transform="matrix(0.83488598,0,0,-0.82928108,303.82264,806.56306)"><path
           d="M 305.145,515.568 V 265.977"
           style="fill:none;stroke:#000000;stroke-width:26.39850044;stroke-linecap:butt;stroke-linejoin:round;stroke-miterlimit:10;stroke-dasharray:none;stroke-opacity:1"
           id="path220"
           inkscape:connector-curvature="0" /></g><path
         d="m 1810.1154,677.20012 33.2501,-95.94902 h -66.5666 z"
         style="fill:#000000;fill-opacity:1;fill-rule:evenodd;stroke:none;stroke-width:0.83208191"
         id="path222"
         inkscape:connector-curvature="0" /><path
         d="m 1950.729,675.86796 33.25,-96.11211 h -66.3086 z"
         style="fill:#000000;fill-opacity:1;fill-rule:evenodd;stroke:none;stroke-width:0.83208191"
         id="path224"
         inkscape:connector-curvature="0" /><path
         d="m 1531.4013,677.20012 33.2501,-95.94902 h -66.5001 z"
         style="fill:#000000;fill-opacity:1;fill-rule:evenodd;stroke:none;stroke-width:0.83208191"
         id="path226"
         inkscape:connector-curvature="0" /><path
         d="m 1672.0481,675.86796 33.2167,-96.11211 h -66.2753 z"
         style="fill:#000000;fill-opacity:1;fill-rule:evenodd;stroke:none;stroke-width:0.83208191"
         id="path228"
         inkscape:connector-curvature="0" /><path
         d="m 1249.9912,678.69537 33.2833,-95.94569 h -66.5333 z"
         style="fill:#000000;fill-opacity:1;fill-rule:evenodd;stroke:none;stroke-width:0.83208191"
         id="path230"
         inkscape:connector-curvature="0" /><path
         d="m 1390.663,677.39899 33.2167,-96.14789 h -66.3003 z"
         style="fill:#000000;fill-opacity:1;fill-rule:evenodd;stroke:none;stroke-width:0.83208191"
         id="path232"
         inkscape:connector-curvature="0" /><path
         d="m 971.31122,678.69537 33.24748,-95.94569 h -66.53076 z"
         style="fill:#000000;fill-opacity:1;fill-rule:evenodd;stroke:none;stroke-width:0.83208191"
         id="path234"
         inkscape:connector-curvature="0" /><path
         d="m 1111.9497,677.39899 33.2159,-96.14789 h -66.2754 z"
         style="fill:#000000;fill-opacity:1;fill-rule:evenodd;stroke:none;stroke-width:0.83208191"
         id="path236"
         inkscape:connector-curvature="0" /><path
         d="m 694.54332,679.53744 33.25083,-95.91408 h -66.50166 z"
         style="fill:#000000;fill-opacity:1;fill-rule:evenodd;stroke:none;stroke-width:0.83208191"
         id="path238"
         inkscape:connector-curvature="0" /><path
         d="m 835.1818,678.27268 33.25082,-96.14706 h -66.30029 z"
         style="fill:#000000;fill-opacity:1;fill-rule:evenodd;stroke:none;stroke-width:0.83208191"
         id="path240"
         inkscape:connector-curvature="0" /><path
         d="m 415.82834,679.53744 33.28328,-95.91408 h -66.53377 z"
         style="fill:#000000;fill-opacity:1;fill-rule:evenodd;stroke:none;stroke-width:0.83208191"
         id="path242"
         inkscape:connector-curvature="0" /><path
         d="m 556.46682,678.27268 33.25083,-96.14706 h -66.30029 z"
         style="fill:#000000;fill-opacity:1;fill-rule:evenodd;stroke:none;stroke-width:0.83208191"
         id="path244"
         inkscape:connector-curvature="0" /><path
         d="m 1812.3621,417.62969 c 37.7349,0 66.6664,27.95295 66.6664,64.71433 0,36.60162 -28.9315,64.5188 -66.6664,64.5188 -37.8015,0 -66.5332,-27.91718 -66.5332,-64.5188 0,-36.76138 28.7317,-64.71433 66.5332,-64.71433 z m 66.8578,129.45696 v 0"
         style="fill:#656565;fill-opacity:1;fill-rule:evenodd;stroke:none;stroke-width:0.83208191"
         id="path246"
         inkscape:connector-curvature="0" /><path
         d="m 1953.3251,416.30002 c 37.7682,0 66.6997,27.91718 66.6997,64.51963 0,36.59496 -28.9315,64.71017 -66.6997,64.71017 -37.5685,0 -66.5,-28.11521 -66.5,-64.71017 0,-36.60245 28.9315,-64.51963 66.5,-64.51963 z m 66.8577,129.45446 v 0"
         style="fill:#656565;fill-opacity:1;fill-rule:evenodd;stroke:none;stroke-width:0.83208191"
         id="path248"
         inkscape:connector-curvature="0" /><path
         d="m 1532.9324,417.62969 c 37.7682,0 66.6664,27.95295 66.6664,64.71433 0,36.60162 -28.8982,64.5188 -66.6664,64.5188 -37.7682,0 -66.5,-27.91718 -66.5,-64.5188 0,-36.76138 28.7318,-64.71433 66.5,-64.71433 z m 66.891,129.45696 v 0"
         style="fill:#656565;fill-opacity:1;fill-rule:evenodd;stroke:none;stroke-width:0.83208191"
         id="path250"
         inkscape:connector-curvature="0" /><path
         d="m 1673.8954,416.30002 c 37.7682,0 66.6997,27.91718 66.6997,64.51963 0,36.59496 -28.9315,64.71017 -66.6997,64.71017 -37.5353,0 -66.5,-28.11521 -66.5,-64.71017 0,-36.60245 28.9647,-64.51963 66.5,-64.51963 z m 66.9243,129.45446 v 0"
         style="fill:#656565;fill-opacity:1;fill-rule:evenodd;stroke:none;stroke-width:0.83208191"
         id="path252"
         inkscape:connector-curvature="0" /><path
         d="m 1250.8067,419.15406 c 37.7349,0 66.6581,27.92384 66.6581,64.72016 0,36.59579 -28.9232,64.48635 -66.6581,64.48635 -37.7682,0 -66.4751,-27.89056 -66.4751,-64.48635 0,-36.79632 28.7069,-64.72016 66.4751,-64.72016 z m 66.8911,129.46362 v 0"
         style="fill:#656565;fill-opacity:1;fill-rule:evenodd;stroke:none;stroke-width:0.83208191"
         id="path254"
         inkscape:connector-curvature="0" /><path
         d="m 1391.7696,417.8219 c 37.7682,0 66.7331,27.89055 66.7331,64.48634 0,36.6374 -28.9649,64.75262 -66.7331,64.75262 -37.5435,0 -66.4667,-28.11522 -66.4667,-64.75262 0,-36.59579 28.9232,-64.48634 66.4667,-64.48634 z m 66.8912,129.43034 v 0"
         style="fill:#656565;fill-opacity:1;fill-rule:evenodd;stroke:none;stroke-width:0.83208191"
         id="path256"
         inkscape:connector-curvature="0" /><path
         d="m 971.40275,419.15406 c 37.74235,0 66.66725,27.92384 66.66725,64.72016 0,36.59579 -28.9249,64.48635 -66.66725,64.48635 -37.76903,0 -66.50165,-27.89056 -66.50165,-64.48635 0,-36.79632 28.73262,-64.72016 66.50165,-64.72016 z m 66.89775,129.46362 v 0"
         style="fill:#656565;fill-opacity:1;fill-rule:evenodd;stroke:none;stroke-width:0.83208191"
         id="path258"
         inkscape:connector-curvature="0" /><path
         d="m 1112.4082,417.8219 c 37.7,0 66.6647,27.89055 66.6647,64.48634 0,36.6374 -28.9647,64.75262 -66.6647,64.75262 -37.5768,0 -66.5341,-28.11522 -66.5341,-64.75262 0,-36.59579 28.9573,-64.48634 66.5341,-64.48634 z m 66.8561,129.43034 v 0"
         style="fill:#656565;fill-opacity:1;fill-rule:evenodd;stroke:none;stroke-width:0.83208191"
         id="path260"
         inkscape:connector-curvature="0" /><path
         d="m 693.92591,420.00278 c 37.76903,0 66.66723,27.94963 66.66723,64.77842 0,36.5367 -28.8982,64.45056 -66.66723,64.45056 -37.7657,0 -66.49832,-27.91386 -66.49832,-64.45056 0,-36.82879 28.73262,-64.77842 66.49832,-64.77842 z m 66.92768,129.48942 v 0"
         style="fill:#656565;fill-opacity:1;fill-rule:evenodd;stroke:none;stroke-width:0.83208191"
         id="path262"
         inkscape:connector-curvature="0" /><path
         d="m 834.8889,418.70557 c 37.73658,0 66.66723,27.91718 66.66723,64.48634 0,36.62825 -28.93065,64.74346 -66.66723,64.74346 -37.56683,0 -66.53076,-28.11521 -66.53076,-64.74346 0,-36.56916 28.96393,-64.48634 66.53076,-64.48634 z m 66.92768,129.42118 v 0"
         style="fill:#656565;fill-opacity:1;fill-rule:evenodd;stroke:none;stroke-width:0.83208191"
         id="path264"
         inkscape:connector-curvature="0" /><path
         d="m 555.49495,418.70557 c 37.76903,0 66.69969,27.91718 66.69969,64.48634 0,36.62825 -28.93066,64.74346 -66.69969,64.74346 -37.54437,0 -66.50165,-28.11521 -66.50165,-64.74346 0,-36.56916 28.95728,-64.48634 66.50165,-64.48634 z m 66.92435,129.42118 v 0"
         style="fill:#656565;fill-opacity:1;fill-rule:evenodd;stroke:none;stroke-width:0.83208191"
         id="path266"
         inkscape:connector-curvature="0" /><path
         d="m 414.53196,420.00278 c 37.73242,0 66.65724,27.94963 66.65724,64.77842 0,36.5367 -28.92482,64.45056 -66.65724,64.45056 -37.80139,0 -66.50173,-27.91386 -66.50173,-64.45056 0,-36.82879 28.70034,-64.77842 66.50173,-64.77842 z m 66.89106,129.48942 v 0"
         style="fill:#656565;fill-opacity:1;fill-rule:evenodd;stroke:none;stroke-width:0.83208191"
         id="path268"
         inkscape:connector-curvature="0" /><path
         style="fill:none;stroke:#0b3b06;stroke-width:14.58369446;stroke-linecap:butt;stroke-linejoin:miter;stroke-miterlimit:4;stroke-dasharray:none;stroke-opacity:1;marker-end:url(#marker1434)"
         d="M 1170.2418,988.3347 H 2244.6243"
         id="path1430"
         inkscape:connector-curvature="0" /><path
         style="fill:none;stroke:#e51519;stroke-width:15.2749548;stroke-linecap:butt;stroke-linejoin:miter;stroke-miterlimit:4;stroke-dasharray:none;stroke-opacity:1;marker-end:url(#marker1434-3)"
         d="M 3028.0057,1218.2037 2168.1014,583.91792"
         id="path1430-3"
         inkscape:connector-curvature="0" /><path
         style="fill:none;stroke:#0c0077;stroke-width:35.96682358;stroke-linecap:butt;stroke-linejoin:miter;stroke-miterlimit:4;stroke-dasharray:none;stroke-opacity:1;marker-end:url(#marker1434-0)"
         d="M 292.90698,150.72198 H 3208.0028"
         id="path1430-8"
         inkscape:connector-curvature="0" /><g
         id="g1136"
         style="fill:#0c0077;fill-opacity:1;stroke:#0c0077;stroke-opacity:1"
         ns1:jacobian_sqrt="30.663885"
         inkscapeversion="0.92.4"
         ns1:alignment="middle center"
         ns1:scale="22.9979138442"
         ns1:preamble="C:/Users/DisiniTana/AppData/Roaming/inkscape/extensions/textext/default_packages.tex"
         ns1:text="$ \\vec{\\nabla} V $\n\n"
         ns1:pdfconverter="pdf2svg"
         ns1:texconverter="pdflatex"
         ns1:version="0.11.0"
         transform="matrix(30.663885,0,0,-30.663885,-3109.8164,3949.8523)"><g
   style="fill:#0c0077;fill-opacity:1;stroke:#0c0077;stroke-opacity:1"
   id="g1134">
<g
   id="g1124"
   style="fill:#0c0077;fill-opacity:1;stroke:#0c0077;stroke-opacity:1">
  <path
   id="path1122"
   transform="translate(149.607,132.246)"
   d="m 5.359375,-5.9375 c -0.140625,0.140625 -0.46875,0.421875 -0.46875,0.59375 0,0.09375 0.09375,0.203125 0.1875,0.203125 0.09375,0 0.140625,-0.078125 0.203125,-0.140625 C 5.390625,-5.421875 5.625,-5.703125 6.0625,-5.921875 6.125,-5.96875 6.234375,-6.015625 6.234375,-6.125 6.234375,-6.234375 6.15625,-6.28125 6.09375,-6.328125 5.875,-6.484375 5.765625,-6.65625 5.6875,-6.890625 5.65625,-6.984375 5.625,-7.125 5.484375,-7.125 c -0.140625,0 -0.203125,0.140625 -0.203125,0.21875 0,0.046875 0.078125,0.359375 0.234375,0.578125 H 2.15625 c -0.15625,0 -0.34375,0 -0.34375,0.203125 0,0.1875 0.1875,0.1875 0.34375,0.1875 z m 0,0"
   style="fill:#0c0077;fill-opacity:1;stroke:#0c0077;stroke-width:0;stroke-opacity:1"
   inkscape:connector-curvature="0" />
</g>
<g
   id="g1128"
   style="fill:#0c0077;fill-opacity:1;stroke:#0c0077;stroke-opacity:1">
  <path
   id="path1126"
   transform="translate(148.712,134.765)"
   d="M 7.78125,-6.59375 C 7.796875,-6.625 7.828125,-6.6875 7.828125,-6.734375 7.828125,-6.796875 7.8125,-6.8125 7.59375,-6.8125 H 0.703125 c -0.21875,0 -0.234375,0.015625 -0.234375,0.078125 0,0.046875 0.03125,0.109375 0.046875,0.140625 L 3.875,0.140625 c 0.078125,0.125 0.109375,0.1875 0.265625,0.1875 0.171875,0 0.203125,-0.0625 0.28125,-0.1875 z m -6.078125,0.5 h 5.46875 l -2.71875,5.484375 z m 0,0"
   style="fill:#0c0077;fill-opacity:1;stroke:#0c0077;stroke-width:0;stroke-opacity:1"
   inkscape:connector-curvature="0" />
</g>
<g
   id="g1132"
   style="fill:#0c0077;fill-opacity:1;stroke:#0c0077;stroke-opacity:1">
  <path
   id="path1130"
   transform="translate(157.015,134.765)"
   d="M 6.265625,-5.671875 C 6.75,-6.453125 7.171875,-6.484375 7.53125,-6.5 c 0.125,-0.015625 0.140625,-0.171875 0.140625,-0.1875 0,-0.078125 -0.0625,-0.125 -0.140625,-0.125 -0.25,0 -0.546875,0.03125 -0.8125,0.03125 -0.328125,0 -0.671875,-0.03125 -0.984375,-0.03125 -0.0625,0 -0.1875,0 -0.1875,0.1875 0,0.109375 0.078125,0.125 0.15625,0.125 0.265625,0.015625 0.453125,0.125 0.453125,0.328125 0,0.15625 -0.140625,0.375 -0.140625,0.375 l -3.0625,4.875 -0.6875,-5.28125 C 2.265625,-6.375 2.5,-6.5 2.953125,-6.5 c 0.140625,0 0.25,0 0.25,-0.203125 0,-0.078125 -0.078125,-0.109375 -0.125,-0.109375 -0.40625,0 -0.828125,0.03125 -1.25,0.03125 -0.171875,0 -0.359375,0 -0.546875,0 -0.171875,0 -0.359375,-0.03125 -0.53125,-0.03125 -0.078125,0 -0.1875,0 -0.1875,0.1875 0,0.125 0.078125,0.125 0.25,0.125 0.546875,0 0.5625,0.09375 0.59375,0.34375 L 2.1875,-0.015625 C 2.21875,0.1875 2.265625,0.21875 2.390625,0.21875 c 0.15625,0 0.203125,-0.046875 0.28125,-0.171875 z m 0,0"
   style="fill:#0c0077;fill-opacity:1;stroke:#0c0077;stroke-width:0;stroke-opacity:1"
   inkscape:connector-curvature="0" />
</g>
</g>
</g><g
         id="g1472"
         style="stroke:#e51519;fill:#e51519;stroke-opacity:1;fill-opacity:1"
         ns1:jacobian_sqrt="24.884435"
         inkscapeversion="0.92.4"
         ns1:alignment="middle center"
         ns1:scale="70.5385605314"
         ns1:preamble="C:/Users/DisiniTana/AppData/Roaming/inkscape/extensions/textext/default_packages.tex"
         ns1:text="$ \\vec{\\jmath}_\\textup{spin} $\n\n\n\n"
         ns1:pdfconverter="pdf2svg"
         ns1:texconverter="pdflatex"
         ns1:version="0.11.0"
         transform="matrix(24.884435,0.000000,0.000000,-24.884435,-1042.970326,4082.520575)"><g
   style="stroke:#e51519;fill:#e51519;stroke-opacity:1;fill-opacity:1"
   id="surface1">
<g
   id="g1455"
   style="stroke:#e51519;fill-opacity:1;stroke-opacity:1;fill:#e51519">
  <path
   id="path1453"
   transform="translate(148.199,134.765)"
   d="M 5.359375 -5.9375 C 5.21875 -5.796875 4.890625 -5.515625 4.890625 -5.34375 C 4.890625 -5.25 4.984375 -5.140625 5.078125 -5.140625 C 5.171875 -5.140625 5.21875 -5.21875 5.28125 -5.28125 C 5.390625 -5.421875 5.625 -5.703125 6.0625 -5.921875 C 6.125 -5.96875 6.234375 -6.015625 6.234375 -6.125 C 6.234375 -6.234375 6.15625 -6.28125 6.09375 -6.328125 C 5.875 -6.484375 5.765625 -6.65625 5.6875 -6.890625 C 5.65625 -6.984375 5.625 -7.125 5.484375 -7.125 C 5.34375 -7.125 5.28125 -6.984375 5.28125 -6.90625 C 5.28125 -6.859375 5.359375 -6.546875 5.515625 -6.328125 L 2.15625 -6.328125 C 2 -6.328125 1.8125 -6.328125 1.8125 -6.125 C 1.8125 -5.9375 2 -5.9375 2.15625 -5.9375 Z M 5.359375 -5.9375 "
   style="fill-opacity:1;stroke:#e51519;stroke-width:0;stroke-opacity:1;fill:#e51519" />
</g>
<g
   id="g1459"
   style="stroke:#e51519;fill-opacity:1;stroke-opacity:1;fill:#e51519">
  <path
   id="path1457"
   transform="translate(148.717055,134.765)"
   d="M 3.546875 -3.125 C 3.59375 -3.3125 3.59375 -3.453125 3.59375 -3.484375 C 3.59375 -4.0625 3.1875 -4.40625 2.6875 -4.40625 C 1.65625 -4.40625 1.09375 -2.953125 1.09375 -2.875 C 1.09375 -2.765625 1.1875 -2.765625 1.203125 -2.765625 C 1.28125 -2.765625 1.296875 -2.78125 1.390625 -2.96875 C 1.71875 -3.765625 2.21875 -4.1875 2.65625 -4.1875 C 2.796875 -4.1875 2.96875 -4.15625 2.96875 -3.734375 C 2.96875 -3.5 2.9375 -3.390625 2.90625 -3.21875 L 1.96875 0.5 C 1.78125 1.203125 1.390625 1.828125 0.8125 1.828125 C 0.734375 1.828125 0.53125 1.8125 0.359375 1.734375 C 0.59375 1.671875 0.78125 1.453125 0.78125 1.203125 C 0.78125 1.046875 0.671875 0.859375 0.40625 0.859375 C 0.171875 0.859375 -0.125 1.0625 -0.125 1.421875 C -0.125 1.90625 0.421875 2.046875 0.8125 2.046875 C 1.578125 2.046875 2.40625 1.453125 2.625 0.53125 Z M 3.546875 -3.125 "
   style="fill-opacity:1;stroke:#e51519;stroke-width:0;stroke-opacity:1;fill:#e51519" />
</g>
<g
   id="g1469"
   style="stroke:#e51519;fill-opacity:1;stroke-opacity:1;fill:#e51519">
  <path
   id="path1461"
   transform="translate(152.538,136.259)"
   d="M 2.640625 -2.921875 C 2.640625 -3.046875 2.640625 -3.109375 2.546875 -3.109375 C 2.515625 -3.109375 2.5 -3.109375 2.40625 -3.03125 C 2.390625 -3.015625 2.328125 -2.953125 2.28125 -2.921875 C 2.0625 -3.0625 1.8125 -3.109375 1.546875 -3.109375 C 0.546875 -3.109375 0.3125 -2.578125 0.3125 -2.234375 C 0.3125 -2.015625 0.40625 -1.828125 0.578125 -1.6875 C 0.84375 -1.46875 1.109375 -1.421875 1.546875 -1.34375 C 1.890625 -1.28125 2.453125 -1.1875 2.453125 -0.71875 C 2.453125 -0.453125 2.265625 -0.125 1.59375 -0.125 C 0.921875 -0.125 0.6875 -0.5625 0.5625 -1.03125 C 0.53125 -1.125 0.53125 -1.15625 0.4375 -1.15625 C 0.3125 -1.15625 0.3125 -1.109375 0.3125 -0.96875 L 0.3125 -0.109375 C 0.3125 0 0.3125 0.0625 0.40625 0.0625 C 0.46875 0.0625 0.609375 -0.078125 0.75 -0.234375 C 1.046875 0.0625 1.421875 0.0625 1.59375 0.0625 C 2.5 0.0625 2.84375 -0.421875 2.84375 -0.90625 C 2.84375 -1.171875 2.71875 -1.390625 2.53125 -1.546875 C 2.265625 -1.796875 1.953125 -1.859375 1.703125 -1.890625 C 1.15625 -2 0.703125 -2.078125 0.703125 -2.453125 C 0.703125 -2.671875 0.890625 -2.9375 1.546875 -2.9375 C 2.359375 -2.9375 2.390625 -2.375 2.40625 -2.171875 C 2.40625 -2.09375 2.5 -2.09375 2.515625 -2.09375 C 2.640625 -2.09375 2.640625 -2.140625 2.640625 -2.28125 Z M 2.640625 -2.921875 "
   style="fill-opacity:1;stroke:#e51519;stroke-width:0;stroke-opacity:1;fill:#e51519" />
<path
   id="path1463"
   transform="translate(155.694342,136.259)"
   d="M 1.9375 1.09375 C 1.484375 1.09375 1.421875 1.09375 1.421875 0.796875 L 1.421875 -0.328125 C 1.453125 -0.296875 1.78125 0.0625 2.359375 0.0625 C 3.28125 0.0625 4.0625 -0.625 4.0625 -1.5 C 4.0625 -2.359375 3.359375 -3.078125 2.46875 -3.078125 C 2.078125 -3.078125 1.671875 -2.921875 1.390625 -2.640625 L 1.390625 -3.078125 L 0.34375 -3 L 0.34375 -2.75 C 0.828125 -2.75 0.859375 -2.703125 0.859375 -2.421875 L 0.859375 0.796875 C 0.859375 1.09375 0.796875 1.09375 0.34375 1.09375 L 0.34375 1.359375 C 0.359375 1.359375 0.84375 1.328125 1.140625 1.328125 C 1.390625 1.328125 1.875 1.34375 1.9375 1.359375 Z M 1.421875 -2.328125 C 1.625 -2.671875 2.03125 -2.84375 2.390625 -2.84375 C 2.984375 -2.84375 3.4375 -2.234375 3.4375 -1.5 C 3.4375 -0.703125 2.90625 -0.125 2.328125 -0.125 C 1.703125 -0.125 1.4375 -0.65625 1.421875 -0.703125 Z M 1.421875 -2.328125 "
   style="fill-opacity:1;stroke:#e51519;stroke-width:0;stroke-opacity:1;fill:#e51519" />
<path
   id="path1465"
   transform="translate(160.09481,136.259)"
   d="M 1.46875 -4.296875 C 1.46875 -4.5 1.296875 -4.703125 1.0625 -4.703125 C 0.859375 -4.703125 0.671875 -4.53125 0.671875 -4.296875 C 0.671875 -4.046875 0.875 -3.890625 1.0625 -3.890625 C 1.296875 -3.890625 1.46875 -4.0625 1.46875 -4.296875 Z M 0.40625 -3 L 0.40625 -2.75 C 0.84375 -2.75 0.90625 -2.703125 0.90625 -2.359375 L 0.90625 -0.546875 C 0.90625 -0.25 0.84375 -0.25 0.390625 -0.25 L 0.390625 0 C 0.40625 0 0.890625 -0.03125 1.171875 -0.03125 C 1.421875 -0.03125 1.671875 -0.015625 1.90625 0 L 1.90625 -0.25 C 1.5 -0.25 1.4375 -0.25 1.4375 -0.546875 L 1.4375 -3.078125 Z M 0.40625 -3 "
   style="fill-opacity:1;stroke:#e51519;stroke-width:0;stroke-opacity:1;fill:#e51519" />
<path
   id="path1467"
   transform="translate(162.350137,136.259)"
   d="M 3.59375 -2.109375 C 3.59375 -2.71875 3.296875 -3.078125 2.546875 -3.078125 C 1.96875 -3.078125 1.609375 -2.765625 1.40625 -2.390625 L 1.40625 -3.078125 L 0.375 -3 L 0.375 -2.75 C 0.84375 -2.75 0.90625 -2.703125 0.90625 -2.359375 L 0.90625 -0.546875 C 0.90625 -0.25 0.828125 -0.25 0.375 -0.25 L 0.375 0 C 0.390625 0 0.875 -0.03125 1.171875 -0.03125 C 1.421875 -0.03125 1.90625 0 1.96875 0 L 1.96875 -0.25 C 1.515625 -0.25 1.453125 -0.25 1.453125 -0.546875 L 1.453125 -1.8125 C 1.453125 -2.53125 2.03125 -2.875 2.484375 -2.875 C 2.96875 -2.875 3.03125 -2.5 3.03125 -2.140625 L 3.03125 -0.546875 C 3.03125 -0.25 2.96875 -0.25 2.515625 -0.25 L 2.515625 0 C 2.53125 0 3.015625 -0.03125 3.3125 -0.03125 C 3.5625 -0.03125 4.046875 0 4.109375 0 L 4.109375 -0.25 C 3.65625 -0.25 3.59375 -0.25 3.59375 -0.546875 Z M 3.59375 -2.109375 "
   style="fill-opacity:1;stroke:#e51519;stroke-width:0;stroke-opacity:1;fill:#e51519" />
</g>
</g>
</g><g
         id="g1141"
         style="fill:#0b3b06;fill-opacity:1"
         ns1:jacobian_sqrt="22.559552"
         inkscapeversion="0.92.4"
         ns1:alignment="middle center"
         ns1:scale="63.9483405717"
         ns1:preamble="C:/Users/DisiniTana/AppData/Roaming/inkscape/extensions/textext/default_packages.tex"
         ns1:text="$ \\vec{\\jmath}_\\textup{e} $\n\n\n"
         ns1:pdfconverter="pdf2svg"
         ns1:texconverter="pdflatex"
         ns1:version="0.11.0"
         transform="matrix(22.559552,0.000000,0.000000,-22.559552,-1755.786686,3825.822688)"><g
   style="fill:#0b3b06;fill-opacity:1"
   id="g1139">
<g
   id="g1129"
   style="fill-opacity:1;fill:#0b3b06">
  <path
   id="path1127"
   transform="translate(148.199,134.765)"
   d="M 5.359375 -5.9375 C 5.21875 -5.796875 4.890625 -5.515625 4.890625 -5.34375 C 4.890625 -5.25 4.984375 -5.140625 5.078125 -5.140625 C 5.171875 -5.140625 5.21875 -5.21875 5.28125 -5.28125 C 5.390625 -5.421875 5.625 -5.703125 6.0625 -5.921875 C 6.125 -5.96875 6.234375 -6.015625 6.234375 -6.125 C 6.234375 -6.234375 6.15625 -6.28125 6.09375 -6.328125 C 5.875 -6.484375 5.765625 -6.65625 5.6875 -6.890625 C 5.65625 -6.984375 5.625 -7.125 5.484375 -7.125 C 5.34375 -7.125 5.28125 -6.984375 5.28125 -6.90625 C 5.28125 -6.859375 5.359375 -6.546875 5.515625 -6.328125 L 2.15625 -6.328125 C 2 -6.328125 1.8125 -6.328125 1.8125 -6.125 C 1.8125 -5.9375 2 -5.9375 2.15625 -5.9375 Z M 5.359375 -5.9375 "
   style="fill-opacity:1;stroke:none;stroke-width:0;fill:#0b3b06" />
</g>
<g
   id="g1133"
   style="fill-opacity:1;fill:#0b3b06">
  <path
   id="path1131"
   transform="translate(148.717055,134.765)"
   d="M 3.546875 -3.125 C 3.59375 -3.3125 3.59375 -3.453125 3.59375 -3.484375 C 3.59375 -4.0625 3.1875 -4.40625 2.6875 -4.40625 C 1.65625 -4.40625 1.09375 -2.953125 1.09375 -2.875 C 1.09375 -2.765625 1.1875 -2.765625 1.203125 -2.765625 C 1.28125 -2.765625 1.296875 -2.78125 1.390625 -2.96875 C 1.71875 -3.765625 2.21875 -4.1875 2.65625 -4.1875 C 2.796875 -4.1875 2.96875 -4.15625 2.96875 -3.734375 C 2.96875 -3.5 2.9375 -3.390625 2.90625 -3.21875 L 1.96875 0.5 C 1.78125 1.203125 1.390625 1.828125 0.8125 1.828125 C 0.734375 1.828125 0.53125 1.8125 0.359375 1.734375 C 0.59375 1.671875 0.78125 1.453125 0.78125 1.203125 C 0.78125 1.046875 0.671875 0.859375 0.40625 0.859375 C 0.171875 0.859375 -0.125 1.0625 -0.125 1.421875 C -0.125 1.90625 0.421875 2.046875 0.8125 2.046875 C 1.578125 2.046875 2.40625 1.453125 2.625 0.53125 Z M 3.546875 -3.125 "
   style="fill-opacity:1;stroke:none;stroke-width:0;fill:#0b3b06" />
</g>
<g
   id="g1137"
   style="fill-opacity:1;fill:#0b3b06">
  <path
   id="path1135"
   transform="translate(152.538,136.259)"
   d="M 3.0625 -1.59375 C 3.21875 -1.59375 3.265625 -1.59375 3.265625 -1.734375 C 3.265625 -2.359375 2.921875 -3.109375 1.875 -3.109375 C 0.96875 -3.109375 0.265625 -2.390625 0.265625 -1.53125 C 0.265625 -0.640625 1.046875 0.0625 1.96875 0.0625 C 2.90625 0.0625 3.265625 -0.6875 3.265625 -0.84375 C 3.265625 -0.859375 3.25 -0.9375 3.140625 -0.9375 C 3.046875 -0.9375 3.03125 -0.890625 3.015625 -0.828125 C 2.796875 -0.265625 2.265625 -0.15625 2.015625 -0.15625 C 1.6875 -0.15625 1.375 -0.296875 1.171875 -0.5625 C 0.90625 -0.890625 0.90625 -1.3125 0.90625 -1.59375 Z M 0.90625 -1.765625 C 0.984375 -2.75 1.609375 -2.90625 1.875 -2.90625 C 2.734375 -2.90625 2.765625 -1.9375 2.78125 -1.765625 Z M 0.90625 -1.765625 "
   style="fill-opacity:1;stroke:none;stroke-width:0;fill:#0b3b06" />
</g>
</g>
</g></g></g></svg>